REM DIRINDEX 1\2,1\3,1\4,1\5
REM DIRNAME "folder01","folder02","folder03","folder04","folder05"
TITLE ""
FILE "1Q_t_0439-0448.mp3" MP3
  TRACK 01 AUDIO
    TITLE "3:cjc172_2245"
    INDEX 01 00:00:00
  TRACK 02 AUDIO
    TITLE "0:"
    INDEX 01 00:01:06
  TRACK 03 AUDIO
    TITLE "4:cjc172_2246"
    INDEX 01 00:01:23
  TRACK 04 AUDIO
    TITLE "0:"
    INDEX 01 00:02:43
  TRACK 05 AUDIO
    TITLE "5:cjc172_2247"
    INDEX 01 00:02:58
  TRACK 06 AUDIO
    TITLE "0:"
    INDEX 01 00:09:09
  TRACK 07 AUDIO
    TITLE "3:cjc172_2248"
    INDEX 01 00:09:66
  TRACK 08 AUDIO
    TITLE "0:"
    INDEX 01 00:11:06
  TRACK 09 AUDIO
    TITLE "4:cjc172_2249"
    INDEX 01 00:11:22
  TRACK 10 AUDIO
    TITLE "0:"
    INDEX 01 00:13:13
  TRACK 11 AUDIO
    TITLE "5:cjc172_2250"
    INDEX 01 00:13:27
  TRACK 12 AUDIO
    TITLE "0:"
    INDEX 01 00:17:70
  TRACK 13 AUDIO
    TITLE "3:cjc172_2251"
    INDEX 01 00:18:45
  TRACK 14 AUDIO
    TITLE "0:"
    INDEX 01 00:19:64
  TRACK 15 AUDIO
    TITLE "4:cjc172_2252"
    INDEX 01 00:20:13
  TRACK 16 AUDIO
    TITLE "0:"
    INDEX 01 00:22:59
  TRACK 17 AUDIO
    TITLE "5:cjc172_2253"
    INDEX 01 00:23:00
  TRACK 18 AUDIO
    TITLE "0:"
    INDEX 01 00:29:28
  TRACK 19 AUDIO
    TITLE "3:cjc172_2254"
    INDEX 01 00:30:06
  TRACK 20 AUDIO
    TITLE "0:"
    INDEX 01 00:31:27
  TRACK 21 AUDIO
    TITLE "4:cjc172_2255"
    INDEX 01 00:31:42
  TRACK 22 AUDIO
    TITLE "0:"
    INDEX 01 00:34:21
  TRACK 23 AUDIO
    TITLE "5:cjc172_2256"
    INDEX 01 00:34:35
  TRACK 24 AUDIO
    TITLE "0:"
    INDEX 01 00:40:53
  TRACK 25 AUDIO
    TITLE "3:cjc172_2257"
    INDEX 01 00:41:29
  TRACK 26 AUDIO
    TITLE "0:"
    INDEX 01 00:42:50
  TRACK 27 AUDIO
    TITLE "4:cjc172_2258"
    INDEX 01 00:42:66
  TRACK 28 AUDIO
    TITLE "0:"
    INDEX 01 00:44:70
  TRACK 29 AUDIO
    TITLE "5:cjc172_2259"
    INDEX 01 00:45:09
  TRACK 30 AUDIO
    TITLE "0:"
    INDEX 01 00:51:23
  TRACK 31 AUDIO
    TITLE "3:cjc172_2260"
    INDEX 01 00:52:01
  TRACK 32 AUDIO
    TITLE "0:"
    INDEX 01 00:53:18
  TRACK 33 AUDIO
    TITLE "4:cjc172_2261"
    INDEX 01 00:53:34
  TRACK 34 AUDIO
    TITLE "0:"
    INDEX 01 00:56:40
  TRACK 35 AUDIO
    TITLE "5:cjc172_2262"
    INDEX 01 00:56:56
  TRACK 36 AUDIO
    TITLE "0:"
    INDEX 01 01:03:23
  TRACK 37 AUDIO
    TITLE "3:cjc172_2263"
    INDEX 01 01:04:02
  TRACK 38 AUDIO
    TITLE "0:"
    INDEX 01 01:05:10
  TRACK 39 AUDIO
    TITLE "4:cjc172_2264"
    INDEX 01 01:05:25
  TRACK 40 AUDIO
    TITLE "0:"
    INDEX 01 01:08:43
  TRACK 41 AUDIO
    TITLE "5:cjc172_2265"
    INDEX 01 01:08:59
  TRACK 42 AUDIO
    TITLE "0:"
    INDEX 01 01:15:14
  TRACK 43 AUDIO
    TITLE "3:cjc172_2266"
    INDEX 01 01:15:67
  TRACK 44 AUDIO
    TITLE "0:"
    INDEX 01 01:16:70
  TRACK 45 AUDIO
    TITLE "4:cjc172_2267"
    INDEX 01 01:17:11
  TRACK 46 AUDIO
    TITLE "0:"
    INDEX 01 01:20:23
  TRACK 47 AUDIO
    TITLE "5:cjc172_2268"
    INDEX 01 01:20:37
  TRACK 48 AUDIO
    TITLE "0:"
    INDEX 01 01:26:65
  TRACK 49 AUDIO
    TITLE "3:cjc172_2269"
    INDEX 01 01:27:45
  TRACK 50 AUDIO
    TITLE "0:"
    INDEX 01 01:28:46
  TRACK 51 AUDIO
    TITLE "4:cjc172_2270"
    INDEX 01 01:28:62
  TRACK 52 AUDIO
    TITLE "0:"
    INDEX 01 01:30:59
  TRACK 53 AUDIO
    TITLE "5:cjc172_2271"
    INDEX 01 01:30:74
  TRACK 54 AUDIO
    TITLE "0:"
    INDEX 01 01:37:51
  TRACK 55 AUDIO
    TITLE "3:cjc172_2272"
    INDEX 01 01:38:29
  TRACK 56 AUDIO
    TITLE "0:"
    INDEX 01 01:39:48
  TRACK 57 AUDIO
    TITLE "4:cjc172_2273"
    INDEX 01 01:39:64
  TRACK 58 AUDIO
    TITLE "0:"
    INDEX 01 01:42:25
  TRACK 59 AUDIO
    TITLE "5:cjc172_2274"
    INDEX 01 01:42:40
  TRACK 60 AUDIO
    TITLE "0:"
    INDEX 01 01:50:44
